<svg id="Layer_1" xmlns="http://www.w3.org/2000/svg" xmlns:xlink="http://www.w3.org/1999/xlink" viewBox="0 0 43.8 87"><style>.st0{fill:url(#XMLID_119_)}.st1{fill:url(#XMLID_120_)}.st2{fill:url(#XMLID_121_)}.st3{fill:url(#XMLID_122_)}.st4{fill:url(#XMLID_123_)}.st5{fill:#f5f5f5}.st6{fill:url(#XMLID_124_)}.st7{fill:url(#XMLID_125_)}.st8{fill:url(#XMLID_126_)}.st9{fill:url(#XMLID_127_)}.st10{fill:url(#XMLID_128_)}.st11{clip-path:url(#XMLID_129_);fill:url(#XMLID_130_)}.st12{clip-path:url(#XMLID_131_);fill:url(#XMLID_132_)}</style><g id="XMLID_1352_"><g id="XMLID_1344_"><g id="XMLID_1358_"><g id="XMLID_1384_"><g id="XMLID_1385_"><g id="XMLID_1388_"><g id="XMLID_1402_"><g id="XMLID_1406_"><linearGradient id="XMLID_119_" gradientUnits="userSpaceOnUse" x1=".586" y1="10.638" x2=".586" y2="14.023"><stop offset="0" stop-color="#bcbec0"/><stop offset="1" stop-color="#bcbec0"/></linearGradient><path id="XMLID_1410_" class="st0" d="M1.2 13.6c0 .3-.3.6-.6.6s-.6-.3-.6-.6V11c0-.3.3-.6.6-.6s.6.3.6.6v2.6z"/><linearGradient id="XMLID_120_" gradientUnits="userSpaceOnUse" x1="1.246" y1="18.212" x2="1.246" y2="24.451"><stop offset="0" stop-color="#bcbec0"/><stop offset="1" stop-color="#bcbec0"/></linearGradient><path id="XMLID_1409_" class="st1" d="M2.4 23.6c0 .6-.5 1.2-1.2 1.2-.6 0-1.2-.5-1.2-1.2V19c0-.6.5-1.2 1.2-1.2.6 0 1.2.5 1.2 1.2v4.6z"/><linearGradient id="XMLID_121_" gradientUnits="userSpaceOnUse" x1="1.246" y1="25.946" x2="1.246" y2="32.185"><stop offset="0" stop-color="#bcbec0"/><stop offset="1" stop-color="#bcbec0"/></linearGradient><path id="XMLID_1408_" class="st2" d="M2.4 31.3c0 .6-.5 1.2-1.2 1.2-.6 0-1.2-.5-1.2-1.2v-4.5c0-.6.5-1.2 1.2-1.2.6 0 1.2.5 1.2 1.2v4.5z"/><linearGradient id="XMLID_122_" gradientUnits="userSpaceOnUse" x1="42.64" y1="18.193" x2="42.64" y2="24.432"><stop offset="0" stop-color="#bcbec0"/><stop offset="1" stop-color="#bcbec0"/></linearGradient><path id="XMLID_1407_" class="st3" d="M43.8 23.5c0 .6-.5 1.2-1.2 1.2-.6 0-1.2-.5-1.2-1.2V19c0-.6.5-1.2 1.2-1.2.6 0 1.2.5 1.2 1.2v4.5z"/></g><linearGradient id="XMLID_123_" gradientUnits="userSpaceOnUse" x1="-2.119" y1="38.962" x2="47.531" y2="48.193"><stop offset="0" stop-color="#bcbec0"/><stop offset="1" stop-color="#bcbec0"/></linearGradient><path id="XMLID_1368_" class="st4" d="M43.8 7.3c0-4-3.3-7.3-7.3-7.3H8.1C4.1 0 .8 3.3.8 7.3v72.4c0 4 3.3 7.3 7.3 7.3h28.4c4 0 7.3-3.3 7.3-7.3V7.3zm-3 69.7h-38V10h38v67z"/><path id="XMLID_1362_" class="st5" d="M35.5 0H8.1C4.2 0 .8 3.3.8 7.3v71.5c0 4 3.4 7.2 7.3 7.2h27.4c3.9 0 7.3-3.2 7.3-7.2V7.3c0-4-3.4-7.3-7.3-7.3zm5.3 77h-38V10h38v67z"/></g><g id="XMLID_1396_"><radialGradient id="XMLID_124_" cx="23.533" cy="2.145" r=".525" gradientUnits="userSpaceOnUse"><stop offset="0" stop-color="#363636"/><stop offset="1" stop-color="#000100"/></radialGradient><circle id="XMLID_1401_" class="st6" cx="23.5" cy="2.1" r=".5"/><radialGradient id="XMLID_125_" cx="16.746" cy="5.096" r=".76" gradientUnits="userSpaceOnUse"><stop offset="0" stop-color="#124492"/><stop offset="1" stop-color="#000100"/></radialGradient><circle id="XMLID_1400_" class="st7" cx="16.7" cy="5.1" r=".8"/><radialGradient id="XMLID_126_" cx="16.746" cy="5.096" r=".611" gradientUnits="userSpaceOnUse"><stop offset="0" stop-color="#124492"/><stop offset=".129" stop-color="#11418b"/><stop offset=".315" stop-color="#0f3878"/><stop offset=".535" stop-color="#0b2a58"/><stop offset=".781" stop-color="#06162d"/><stop offset="1" stop-color="#000100"/></radialGradient><circle id="XMLID_1399_" class="st8" cx="16.7" cy="5.1" r=".6"/><linearGradient id="XMLID_127_" gradientUnits="userSpaceOnUse" x1="23.557" y1="4.633" x2="23.557" y2="5.322"><stop offset="0" stop-color="#bcbec0"/><stop offset=".012" stop-color="#bfc1c3"/><stop offset=".138" stop-color="#dbdcdd"/><stop offset=".265" stop-color="#efeff0"/><stop offset=".391" stop-color="#fbfbfb"/><stop offset=".517" stop-color="#fff"/><stop offset=".628" stop-color="#fafafb"/><stop offset=".753" stop-color="#ededee"/><stop offset=".886" stop-color="#d6d7d8"/><stop offset="1" stop-color="#bcbec0"/></linearGradient><path id="XMLID_1398_" class="st9" d="M27.3 5c0 .2-.2.4-.4.4h-6.7c-.2 0-.4-.2-.4-.4s.2-.4.4-.4h6.7c.2 0 .4.2.4.4z"/><linearGradient id="XMLID_128_" gradientUnits="userSpaceOnUse" x1="23.557" y1="4.723" x2="23.557" y2="5.229"><stop offset="0" stop-color="#959597"/><stop offset=".826" stop-color="#373435"/><stop offset="1" stop-color="#231f20"/></linearGradient><path id="XMLID_1397_" class="st10" d="M27.2 5c0 .2-.2.3-.4.3h-6.5c-.2 0-.4-.1-.4-.3 0-.2.2-.3.4-.3h6.5c.2 0 .4.1.4.3z"/></g><g id="XMLID_1389_"><g id="XMLID_1393_"><defs><path id="XMLID_1394_" d="M18.3 81.1c0 1.9 1.5 3.4 3.4 3.4s3.4-1.5 3.4-3.4-1.5-3.4-3.4-3.4-3.4 1.5-3.4 3.4"/></defs><clipPath id="XMLID_129_"><use xlink:href="#XMLID_1394_" overflow="visible"/></clipPath><linearGradient id="XMLID_130_" gradientUnits="userSpaceOnUse" x1="-374.537" y1="443.55" x2="-374.395" y2="443.55" gradientTransform="scale(-59.6218 59.6218) rotate(17.28 1267.651 1453.473)"><stop offset="0" stop-color="#bcbec0"/><stop offset="1" stop-color="#bcbec0"/></linearGradient><path id="XMLID_1395_" class="st11" d="M26.9 83.9l-8 2.5-2.6-8.1 8.1-2.5z"/></g><g id="XMLID_1390_"><defs><path id="XMLID_1391_" d="M18.6 81.1c0 1.7 1.4 3.1 3 3.1 1.7 0 3.1-1.4 3.1-3.1 0-1.7-1.4-3.1-3-3.1-1.7 0-3.1 1.4-3.1 3.1"/></defs><clipPath id="XMLID_131_"><use xlink:href="#XMLID_1391_" overflow="visible"/></clipPath><radialGradient id="XMLID_132_" cx="-386.877" cy="423.044" r=".149" gradientTransform="matrix(20.522 .0956 .0962 -20.8117 7920.43 8922.33)" gradientUnits="userSpaceOnUse"><stop offset="0" stop-color="#fafdfc"/><stop offset=".08" stop-color="#fbfefd"/><stop offset="1" stop-color="#fcffff"/></radialGradient><path id="XMLID_1392_" class="st12" d="M18.6 78h6.1v6.2h-6.1z"/></g></g></g></g></g></g></g></g></svg>